<?xml version="1.0" encoding="UTF-8"?>
<svg version="1.1" xmlns="http://www.w3.org/2000/svg" width="1024" height="1024">
<path d="M0 0 C337.92 0 675.84 0 1024 0 C1024 337.92 1024 675.84 1024 1024 C686.08 1024 348.16 1024 0 1024 C0 686.08 0 348.16 0 0 Z " fill="#FEFEFE" transform="translate(0,0)"/>
<path d="M0 0 C6.28351592 3.67526403 8.54901369 9.0330365 10.54174805 15.85449219 C20.9297869 56.51822736 1.65528697 107.0450476 -12 145 C-12.65186279 146.8250708 -12.65186279 146.8250708 -13.31689453 148.68701172 C-24.20913454 178.89499427 -38.68722235 207.60504674 -57 234 C-68.55579048 249.38166885 -68.55579048 249.38166885 -72.48828125 267.578125 C-71.36692387 273.14005763 -68.53801733 277.42150852 -64.625 281.4375 C-58.29162939 285.20736346 -51.90745726 285.71300541 -44.74609375 284.40625 C-27.77557094 279.75788956 -14.78271339 269.50449578 -1 259 C-0.08903564 258.30704834 -0.08903564 258.30704834 0.84033203 257.60009766 C4.0015501 255.19044596 7.14598882 252.75962318 10.28662109 250.32324219 C12.92915186 248.2824162 15.586195 246.26071528 18.24169922 244.23681641 C29.5957994 235.57922034 40.84359075 226.81649964 51.875 217.75 C52.56464844 217.1835376 53.25429688 216.6170752 53.96484375 216.03344727 C58.18310205 212.5502347 62.29688883 208.97933854 66.34033203 205.29394531 C68 204 68 204 70 204 C68.35728782 207.71164158 66.05107313 210.68166296 63.5625 213.875 C63.12075439 214.44234863 62.67900879 215.00969727 62.22387695 215.59423828 C61.28842451 216.79444762 60.35146104 217.99348059 59.41308594 219.19140625 C58.051409 220.93420216 56.70028176 222.68466634 55.3515625 224.4375 C46.48986472 235.90365843 36.98380334 246.79694376 27.24291992 257.52246094 C25.8136553 259.10123283 24.39015586 260.68525694 22.97436523 262.27612305 C10.32479366 276.47330326 -2.67736351 290.99580344 -19 301 C-19.58861816 301.36367676 -20.17723633 301.72735352 -20.78369141 302.10205078 C-27.88537395 306.45176027 -35.08377481 310.34729667 -43 313 C-43.95712891 313.33644531 -43.95712891 313.33644531 -44.93359375 313.6796875 C-52.82950914 316.07636868 -61.76822479 316.51842604 -69.25 312.8125 C-70.85001091 311.90375594 -72.43406066 310.96627361 -74 310 C-79.74838339 306.52982207 -84.1530468 303.8913182 -91 304 C-106.1345634 308.42064326 -119.22545569 325.15270644 -130.06713867 336.08178711 C-134.22407366 340.25951544 -138.48266735 344.21291285 -143 348 C-143.89203125 348.78117187 -144.7840625 349.56234375 -145.703125 350.3671875 C-159.67360934 362.54062922 -174.44507994 373.59857688 -191 382 C-191.98355469 382.50015625 -192.96710938 383.0003125 -193.98046875 383.515625 C-196.62380121 384.78198341 -199.27454061 385.9224928 -202 387 C-202.99 387.391875 -203.98 387.78375 -205 388.1875 C-217.45555774 392.5835792 -228.96800354 392.64760367 -241.1328125 387.38671875 C-243.15422353 386.40906082 -245.15548838 385.38920079 -247.140625 384.33984375 C-251.08314491 382.49246079 -253.97158322 382.67530983 -258 384 C-262.16634001 386.07420371 -266.07165412 388.50932293 -270 391 C-284.40140218 400.11665056 -298.89551295 407.39378167 -315 413 C-316.49660156 413.54527344 -316.49660156 413.54527344 -318.0234375 414.1015625 C-337.11803974 419.86502512 -357.59168001 415.52370893 -375.4230957 407.93115234 C-380.60655138 405.81309333 -385.55802201 404.79656037 -390.91186523 406.66845703 C-396.74127237 409.44253732 -402.1448621 413.13541505 -407.5625 416.625 C-408.45001953 417.19089844 -409.33753906 417.75679687 -410.25195312 418.33984375 C-420.55880322 424.93798342 -430.7002022 431.78637579 -440.86366272 438.60211182 C-444.0239643 440.72073656 -447.18566727 442.83726383 -450.34765625 444.95336914 C-451.97150008 446.04104746 -453.59452621 447.12994739 -455.21679688 448.2199707 C-457.59551155 449.81784437 -459.97712957 451.41130298 -462.359375 453.00390625 C-463.08429138 453.49234512 -463.80920776 453.980784 -464.55609131 454.48402405 C-465.22819641 454.93216965 -465.90030151 455.38031525 -466.59277344 455.84204102 C-467.18040466 456.23601578 -467.76803589 456.62999054 -468.37347412 457.03590393 C-470 458 -470 458 -473 459 C-473.78592105 461.46605936 -474.36484442 463.78637543 -474.875 466.3125 C-475.22123171 467.8935418 -475.56894371 469.47426 -475.91796875 471.0546875 C-476.09634277 471.87807617 -476.2747168 472.70146484 -476.45849609 473.54980469 C-477.30116102 477.36269252 -478.2367232 481.1503254 -479.1875 484.9375 C-479.39076904 485.74735352 -479.59403809 486.55720703 -479.8034668 487.39160156 C-484.98370328 507.88442697 -490.44710952 528.29981986 -496.25 548.625 C-496.45233246 549.33536407 -496.65466492 550.04572815 -496.86312866 550.77761841 C-497.45295756 552.8447111 -498.04578762 554.91090578 -498.640625 556.9765625 C-498.8305452 557.63689987 -499.02046539 558.29723724 -499.21614075 558.97758484 C-500.22757201 562.4588912 -501.28631166 565.91881569 -502.40820312 569.36621094 C-502.6400531 570.08360443 -502.87190308 570.80099792 -503.11077881 571.54013062 C-503.55390213 572.90180548 -504.00444146 574.26109946 -504.46392822 575.61734009 C-506.15186431 580.80432388 -506.86260323 584.91357844 -504.75 590.0234375 C-504.1725 591.12945313 -503.595 592.23546875 -503 593.375 C-486.51661103 626.61136608 -482.14474545 662.34231078 -493.68530273 697.69873047 C-507.63212664 738.42141776 -507.63212664 738.42141776 -523.875 749.25 C-527.20040974 750.42367403 -529.48930382 750.4760266 -533 750 C-538.70656593 746.7527491 -541.65077983 741.96087175 -544 736 C-544.27585937 735.31035156 -544.55171875 734.62070312 -544.8359375 733.91015625 C-548.04953323 725.11254021 -549.17472013 716.08068575 -549.375 706.75 C-549.40335938 705.46609375 -549.43171875 704.1821875 -549.4609375 702.859375 C-548.8017256 690.95921306 -544.28602383 679.39358944 -539.85473633 668.46047974 C-538.4916293 665.08731492 -537.1718533 661.69717912 -535.84765625 658.30859375 C-535.5923111 657.65672592 -535.33696594 657.00485809 -535.07388306 656.33323669 C-525.41482296 631.62774421 -519.20622744 604.84105468 -529.4375 579.4296875 C-535.01480078 567.44385362 -543.34306363 557.76325981 -552.1875 548.0625 C-552.64987061 547.55517334 -553.11224121 547.04784668 -553.58862305 546.52514648 C-557.46470461 542.37574712 -561.68264902 538.68179925 -566 535 C-566.95289917 534.1797937 -566.95289917 534.1797937 -567.92504883 533.34301758 C-578.7596771 524.07026249 -590.10850298 515.85807289 -602 508 C-603.18397181 507.21150489 -604.36761359 506.42251376 -605.55078125 505.6328125 C-606.76314453 504.82457031 -606.76314453 504.82457031 -608 504 C-604.40890034 500.95922471 -600.3346699 499.23479085 -596.0625 497.375 C-589.25641705 494.36387461 -582.47217612 491.31020406 -575.71484375 488.19140625 C-574.97641739 487.85064056 -574.23799103 487.50987488 -573.47718811 487.15878296 C-571.9384371 486.44847009 -570.39972629 485.73807011 -568.86105347 485.02758789 C-558.29107384 480.14747528 -547.7136144 475.29085306 -537.0625 470.58984375 C-535.85164734 470.05498604 -535.85164734 470.05498604 -534.61633301 469.50932312 C-530.76923307 467.81174288 -526.91918303 466.12134213 -523.06445312 464.44116211 C-519.02174802 462.67237761 -515.00589272 460.85043125 -511 459 C-510.36529785 458.71306274 -509.7305957 458.42612549 -509.07666016 458.13049316 C-501.1449298 454.85381226 -501.1449298 454.85381226 -495.85546875 448.55859375 C-495.33466737 446.45874446 -495.33466737 446.45874446 -495 444 C-494.78037598 442.84902832 -494.56075195 441.69805664 -494.33447266 440.51220703 C-493.69909287 437.09058036 -493.15395376 433.66038384 -492.63745117 430.21899414 C-492.31350292 428.06915573 -491.97318838 425.92237017 -491.63085938 423.77539062 C-490.54629643 416.81417159 -489.70790184 410.06561768 -490 403 C-495.28566862 403.46851744 -498.54745534 404.61465135 -502.9375 407.5625 C-510.33978015 412.33094559 -518.0813391 416.16962241 -526 420 C-526.66 420.33 -527.32 420.66 -528 421 C-530.61860735 421.15112939 -533.19290882 421.23133862 -535.8125 421.25 C-536.88081055 421.2809375 -536.88081055 421.2809375 -537.97070312 421.3125 C-542.53060752 421.34624582 -545.37563941 420.79728016 -549 418 C-551.43316323 415.08020413 -551.98107319 413.50156057 -552.125 409.6875 C-548.75608165 398.6449343 -537.51243707 393.2526412 -528 388 C-523.56142847 385.64872255 -519.09545839 383.35245874 -514.625 381.0625 C-483.78917179 365.26128812 -453.92430814 346.35707014 -442.5234375 311.7421875 C-437.24779452 294.34592172 -434.98341529 276.14120105 -432.31201172 258.21185303 C-429.90654374 242.08043898 -427.19271996 226.00920165 -424.34381104 209.95062256 C-424.02179913 208.12367802 -423.70669282 206.2955201 -423.39208984 204.46728516 C-415.85645232 160.78909723 -402.41381089 118.09604382 -376 82 C-356.93182249 99.3894892 -348.19934149 134.24765757 -346.8359375 158.97558594 C-344.98133279 208.69444723 -366.56670689 258.97642877 -395 299 C-395.77382743 300.11040545 -396.54724234 301.22109845 -397.3203125 302.33203125 C-402.82094591 310.18275685 -408.63632811 317.75009671 -414.60888672 325.24560547 C-416.00080919 327.00102051 -417.37938032 328.76609499 -418.75390625 330.53515625 C-425.95345141 339.79317734 -433.43448424 348.77588291 -441.1484375 357.609375 C-444.13933338 361.03974384 -447.08645778 364.50374934 -450 368 C-450.64324219 368.76570313 -451.28648437 369.53140625 -451.94921875 370.3203125 C-457.02050756 377.03945082 -458.38274347 384.92324663 -460 393 C-460.24814453 394.22025879 -460.49628906 395.44051758 -460.75195312 396.69775391 C-461.46106777 400.20350441 -462.15245087 403.7124443 -462.83300781 407.22384644 C-463.10819703 408.64347558 -463.38549706 410.06269739 -463.66503906 411.48147583 C-465.2041847 419.3486194 -466.47487875 426.9534434 -466 435 C-454.13375223 427.73503687 -442.54828941 420.09174195 -431.02563477 412.29492188 C-428.17640357 410.36749357 -425.32376883 408.44518401 -422.47070312 406.5234375 C-418.04799689 403.540907 -413.63703552 400.54179758 -409.23577881 397.52770996 C-407.84728521 396.57895085 -406.45619252 395.63396948 -405.06109619 394.69494629 C-403.48663774 393.63469554 -401.92426533 392.55655313 -400.36328125 391.4765625 C-399.56833252 390.93338379 -398.77338379 390.39020508 -397.9543457 389.83056641 C-394.88448216 386.95513395 -393.28063981 383.74990315 -392.61523438 379.60083008 C-392.60814453 378.83150146 -392.60105469 378.06217285 -392.59375 377.26953125 C-392.57417236 376.39409668 -392.55459473 375.51866211 -392.53442383 374.61669922 C-392.51738403 373.22862061 -392.51738403 373.22862061 -392.5 371.8125 C-391.2255381 330.59920401 -374.7001594 292.55848192 -346 263 C-345.43120117 262.40541992 -344.86240234 261.81083984 -344.27636719 261.19824219 C-335.75010856 252.30506549 -326.94893137 244.26892895 -317 237 C-316.46165527 236.60087402 -315.92331055 236.20174805 -315.36865234 235.79052734 C-299.2116649 223.87530142 -281.72144564 213.54788863 -261 216 C-254.68364159 218.5951508 -250.92990253 222.4610018 -248.1875 228.625 C-242.00535709 247.38338793 -252.04479788 269.43184721 -260 286 C-262.64962783 291.24380091 -265.63819213 296.1841716 -269 301 C-269.5880542 301.84401367 -269.5880542 301.84401367 -270.18798828 302.70507812 C-280.60703667 317.34086483 -293.88675896 329.98007206 -308 341 C-309.22428623 342.00947532 -310.44541157 343.02279132 -311.6640625 344.0390625 C-319.04801858 350.1740409 -326.49818827 355.96142787 -334.59643555 361.13427734 C-339.06366751 364.06370487 -343.20593867 367.36798889 -346 372 C-346.49113657 375.36674643 -346.28833455 377.83667857 -345 381 C-341.51061877 385.45654668 -337.44395705 387.61392338 -332 389 C-320.39025553 390.13781318 -308.76708602 389.74601818 -298 385 C-296.9378125 384.53722656 -295.875625 384.07445312 -294.78125 383.59765625 C-282.93630328 377.83029529 -272.33125468 368.67398633 -266 357 C-265.63003906 356.4225 -265.26007813 355.845 -264.87890625 355.25 C-263.57237669 351.90528434 -263.70059414 348.54337987 -263.625 345 C-262.13304821 308.98369572 -245.66020655 276.74325616 -221 251 C-220.13375 250.05898438 -219.2675 249.11796875 -218.375 248.1484375 C-197.87319962 226.32886721 -166.54431355 208.59709247 -136.24365234 207.56030273 C-135.35887207 207.54040283 -134.4740918 207.52050293 -133.5625 207.5 C-132.72154785 207.46914307 -131.8805957 207.43828613 -131.01416016 207.40649414 C-124.77185648 207.40587153 -121.71001318 208.8987222 -117 213 C-114.0903204 217.4277733 -114.35095989 222.89649512 -115 228 C-117.78171148 238.59638 -122.81635509 248.40483847 -128 258 C-128.37253906 258.6899707 -128.74507812 259.37994141 -129.12890625 260.09082031 C-137.00789394 274.47998851 -146.60235641 287.63288774 -157.8046875 299.62890625 C-159.66365478 301.63672323 -161.45534933 303.6786383 -163.2421875 305.75 C-172.85389872 316.76539538 -183.38324946 327.11760156 -195 336 C-196.05834619 336.83590617 -197.11558429 337.67321667 -198.171875 338.51171875 C-204.14950473 343.22339391 -210.23345531 347.58756129 -216.7578125 351.52734375 C-220.15058119 353.75569531 -221.73694497 355.0287199 -222.8125 359 C-223.31537595 362.18291805 -223.31537595 362.18291805 -221 365 C-209.12763527 367.62516431 -196.65117343 360.42999428 -187.01025391 354.32666016 C-169.91218906 343.04285103 -154.19176442 329.69273414 -138.64160156 316.39892578 C-136.89939822 314.91427005 -135.14934635 313.43921943 -133.3984375 311.96484375 C-114.50942164 296.01092527 -100.43987814 280.9078221 -97.60351562 255.43994141 C-97.33149613 251.79437643 -97.12121015 248.15106209 -96.9375 244.5 C-96.85984184 243.14396902 -96.78087178 241.78801263 -96.70068359 240.43212891 C-96.53713301 237.64674227 -96.3784939 234.8611598 -96.22509766 232.07519531 C-91.89049668 153.38229446 -78.89230526 61.86980579 -17.1875 5.5 C-11.74968 0.66638222 -7.30567888 -1.19431968 0 0 Z " fill="#01B450" transform="translate(769,106)"/>
<path d="M0 0 C2.36689911 19.85524907 2.36689911 19.85524907 -1.29492188 26.26757812 C-4.66825271 30.14154463 -8.77164944 32.97807084 -13.07275391 35.74169922 C-15.71719308 37.46825603 -18.09048603 39.46230211 -20.5 41.5 C-21.80710937 42.55960938 -21.80710937 42.55960938 -23.140625 43.640625 C-28.52923144 48.08696146 -33.77333827 52.70188353 -39.03857422 57.29296875 C-41.00226969 59.00197532 -42.97090459 60.70509749 -44.94140625 62.40625 C-50.42264273 67.13979524 -55.89304644 71.87542615 -61.25 76.75 C-64.52149835 79.71967972 -67.86969572 82.54339555 -71.3125 85.3125 C-76.76376101 89.72138108 -81.87713498 94.4352398 -87 99.21484375 C-89.96144168 101.97596347 -92.98985638 104.65054651 -96.05078125 107.30078125 C-100.08095661 110.81406038 -104.03146612 114.41746334 -108 118 C-109.66640851 119.50028679 -111.33307353 121.00028872 -113 122.5 C-113.825 123.2425 -114.65 123.985 -115.5 124.75 C-118 127 -120.5 129.25 -123 131.5 C-123.82757812 132.24507812 -124.65515625 132.99015625 -125.5078125 133.7578125 C-127.14739879 135.23292618 -128.78799655 136.70691652 -130.4296875 138.1796875 C-136.48392486 143.6149613 -142.4898955 149.10132485 -148.48095703 154.60595703 C-149.95289916 155.95677503 -151.42757736 157.30460973 -152.90234375 158.65234375 C-159.11398443 164.33036697 -165.2828411 170.05169166 -171.42626953 175.8034668 C-174.83267855 178.98950219 -178.25720142 182.15258132 -181.71191406 185.28613281 C-187.33057537 190.3842034 -192.71327402 195.65594688 -198.015625 201.078125 C-200.07284983 203.14049955 -202.20728857 205.04903231 -204.4284668 206.93286133 C-210.25834331 212.0154857 -215.6686701 217.52454898 -221.12890625 222.99609375 C-222.28883055 224.15534273 -223.44890312 225.31444337 -224.6091156 226.47340393 C-227.0287161 228.89153822 -229.44651971 231.3114508 -231.86303711 233.73266602 C-234.94143922 236.81676472 -238.02431023 239.89635094 -241.10855198 242.97460842 C-243.50144869 245.36387033 -245.89193238 247.75553514 -248.28172112 250.14790535 C-249.41674617 251.28359161 -250.55249819 252.41855186 -251.68902779 253.55273247 C-257.14319416 258.99809459 -262.5591325 264.43761328 -267.55555725 270.31401062 C-270.2244171 273.42916999 -273.06330947 276.38923176 -275.875 279.375 C-283.77469929 287.81053768 -291.48943893 296.3018146 -298.7578125 305.29296875 C-300.89483782 307.87303591 -303.10735745 310.34714485 -305.375 312.8125 C-309.62168952 317.45544752 -313.48121793 322.34606966 -317.28271484 327.35473633 C-319.39061445 330.1016388 -321.09137398 332.06091599 -324 334 C-324.7734375 333.28714844 -325.546875 332.57429688 -326.34375 331.83984375 C-333.01084354 325.68857081 -333.01084354 325.68857081 -339.8125 319.6875 C-346.38820117 313.99510197 -352.66158705 307.95340388 -359 302 C-357.37915347 298.55598213 -355.57463755 296.39328482 -352.8125 293.75 C-350.08328797 291.1307212 -347.5182699 288.46119131 -345.0703125 285.58203125 C-339.98611711 279.71686505 -334.44338675 274.29440101 -328.94848633 268.81811523 C-327.06671726 266.94170525 -325.19035262 265.06001031 -323.31445312 263.17773438 C-317.9213966 257.78199691 -312.53878156 252.45218827 -306.72436523 247.50610352 C-303.66004011 244.82964568 -300.84280692 241.90771119 -298 239 C-293.83645966 234.74140166 -289.57523547 230.70451443 -285.06640625 226.8125 C-281.45118556 223.64149357 -277.98452221 220.31315227 -274.5 217 C-269.69793054 212.43409789 -264.85080946 207.95354671 -259.84423828 203.61230469 C-257.24066906 201.33616342 -254.71804879 198.98212657 -252.1875 196.625 C-248.41258873 193.13232509 -244.57441715 189.78489993 -240.5625 186.5625 C-236.37759905 183.19651492 -232.41710021 179.66800278 -228.5 176 C-223.79593543 171.59953451 -218.96979559 167.44585623 -213.9453125 163.41015625 C-210.40081942 160.5096891 -206.95034644 157.51127429 -203.5 154.5 C-198.39714333 150.05409793 -193.24708242 145.6873579 -187.98828125 141.42578125 C-184.97679364 138.98116189 -181.98250582 136.51679521 -178.9909668 134.04785156 C-165.4506304 122.87324244 -151.84779914 111.79193009 -138 101 C-137.31180176 100.46262207 -136.62360352 99.92524414 -135.91455078 99.37158203 C-125.7591598 91.44227809 -115.55972993 83.57308239 -105.31152344 75.76416016 C-102.79059885 73.84018455 -100.27408325 71.91052633 -97.7578125 69.98046875 C-89.66306165 63.77961436 -81.56962509 57.59744899 -73.23657227 51.71923828 C-68.35794264 48.27524743 -63.55131077 44.73830861 -58.75 41.1875 C-43.96866088 30.26731197 -29.04941806 19.54751852 -14 9 C-13.34467285 8.53980469 -12.6893457 8.07960938 -12.01416016 7.60546875 C-10.17811605 6.31740749 -8.33963438 5.03292665 -6.5 3.75 C-5.4584375 3.02296875 -4.416875 2.2959375 -3.34375 1.546875 C-1 0 -1 0 0 0 Z " fill="#00B450" transform="translate(692,499)"/>
<path d="M0 0 C5.53846154 3.07692308 5.53846154 3.07692308 7 6 C8.96652257 22.1835136 -1.25516957 39.29853493 -10.8125 51.75 C-15.7129167 57.94292919 -21.10427825 63.69880731 -26.52832031 69.43115234 C-28.8254748 71.87997695 -31.06329089 74.38218219 -33.3125 76.875 C-60.76869318 106.83630205 -60.76869318 106.83630205 -74 111 C-76.625 110.9375 -76.625 110.9375 -79 110 C-84.95277352 102.34643404 -82.95830083 92.0372211 -82 83 C-77.9451739 54.44293415 -53.78885033 30.21369356 -31.96386719 13.47607422 C-22.83091979 6.7715249 -11.76269841 -1.26028912 0 0 Z " fill="#FCFEFD" transform="translate(621,336)"/>
<path d="M0 0 C2.38033136 1.87541259 2.93296275 2.81392017 3.40625 5.77734375 C4.61244814 27.27782555 -10.5203055 48.18801278 -23.9375 63.625 C-25.44201693 65.4755034 -26.94196763 67.32972796 -28.4375 69.1875 C-38.76424284 81.7576387 -49.76598651 93.02540695 -62.875 102.6875 C-63.48939941 103.1405249 -64.10379883 103.5935498 -64.73681641 104.06030273 C-75.12984962 111.53268672 -75.12984962 111.53268672 -81.9375 110.625 C-84.49699546 108.77157225 -84.91668798 107.68743607 -85.9375 104.625 C-89.02711356 82.80215991 -75.49536236 58.88230139 -62.9375 42.0625 C-52.39288523 28.42809943 -40.50791745 15.80897675 -26.1875 6.125 C-25.58583008 5.71556152 -24.98416016 5.30612305 -24.36425781 4.88427734 C-17.05209696 0.11278255 -8.54088023 -3.99785883 0 0 Z " fill="#FCFEFD" transform="translate(500.9375,344.375)"/>
<path d="M0 0 C1.2065625 0.0309375 1.2065625 0.0309375 2.4375 0.0625 C10.69750724 15.40251344 6.11116218 35.49606318 1.4375 51.4375 C-5.20564969 72.01229867 -14.06963373 91.89942294 -22.98583984 111.56494141 C-24.64113106 115.23692995 -26.27072085 118.91949532 -27.89453125 122.60546875 C-37.41573008 144.17932708 -37.41573008 144.17932708 -42.625 154.125 C-42.97071045 154.79096191 -43.3164209 155.45692383 -43.67260742 156.14306641 C-45.55950849 159.63884802 -47.45415271 162.55455782 -50.5625 165.0625 C-51.5525 165.0625 -52.5425 165.0625 -53.5625 165.0625 C-66.65801491 130.33319447 -42.73594377 74.86924554 -28.5625 43.0625 C-26.35378472 38.28570271 -23.99331764 33.59672849 -21.54199219 28.94042969 C-20.53811283 27.01574374 -19.56810745 25.0764815 -18.6015625 23.1328125 C-7.01035135 0.17098418 -7.01035135 0.17098418 0 0 Z " fill="#FBFDFD" transform="translate(755.5625,150.9375)"/>
<path d="M0 0 C2.92213375 0.58442675 4.59129099 1.44847505 6.375 3.85546875 C11.48060967 12.6839188 12.34019908 20.7247962 12.25 30.75 C12.23876099 32.40273926 12.23876099 32.40273926 12.22729492 34.08886719 C11.70489349 74.49180271 -0.46510354 117.97432589 -30 147 C-32.00206097 148.71792568 -33.61996272 149.80998136 -36 151 C-36.99 150.67 -37.98 150.34 -39 150 C-39.29246667 143.18390169 -38.15906368 137.09047891 -36.75 130.4375 C-34.73579847 120.53310176 -33.24854693 110.66049149 -32.0625 100.625 C-28.50433819 71.27290216 -22.19264712 22.19264712 0 0 Z " fill="#FBFDFD" transform="translate(392,237)"/>
<path d="M0 0 C-0.74651771 8.53709999 -2.43155831 16.86217867 -4.125 25.25 C-4.35443298 26.39319199 -4.35443298 26.39319199 -4.58850098 27.55947876 C-6.78700443 38.48120979 -9.15188882 49.35384008 -11.75 60.1875 C-12.03117676 61.36666992 -12.31235352 62.54583984 -12.60205078 63.76074219 C-14.05499247 69.68846736 -15.7065675 75.34240596 -18 81 C-21.3902023 77.92762917 -23.99338543 74.6845726 -26.625 70.9375 C-33.01012903 62.01745083 -40.66653737 54.26954585 -48.375 46.5 C-48.86258789 46.00765869 -49.35017578 45.51531738 -49.85253906 45.00805664 C-52.75238558 42.12166302 -55.76022915 39.4975688 -59 37 C-58.85595703 35.22338867 -58.85595703 35.22338867 -58 33 C-55.55419922 31.2199707 -55.55419922 31.2199707 -52.3046875 29.42578125 C-51.72494675 29.10054977 -51.14520599 28.7753183 -50.54789734 28.44023132 C-48.66321205 27.38590268 -46.76925983 26.34950987 -44.875 25.3125 C-43.57980021 24.59071154 -42.28544762 23.86740074 -40.99194336 23.14257812 C-38.45861415 21.72331815 -35.92283028 20.30862256 -33.38525391 18.89697266 C-29.40213305 16.6649772 -25.4665629 14.36698344 -21.5625 12 C-20.45648438 11.33097656 -19.35046875 10.66195312 -18.2109375 9.97265625 C-15.89780461 8.55157096 -13.59091516 7.12270008 -11.2890625 5.68359375 C-10.68376709 5.30654297 -10.07847168 4.92949219 -9.45483398 4.54101562 C-7.80398216 3.51023095 -6.15767126 2.47218371 -4.51171875 1.43359375 C-2 0 -2 0 0 0 Z " fill="#FBFDFD" transform="translate(271,583)"/>
<path d="M0 0 C25 0 25 0 33 4 C36.04372591 8.28023956 36.56589297 11.81264776 36 17 C34.38806623 20.30062629 32.25179409 23.10483617 30 26 C30.7425 26.0825 31.485 26.165 32.25 26.25 C35.56604529 27.15437599 36.83531391 28.3714526 39 31 C40.55417619 35.66252858 40.54448802 39.48753327 38.875 44.125 C36.07984174 48.41090933 32.95224283 51.34925239 28 53 C25.86205475 53.0833804 23.72157991 53.10733747 21.58203125 53.09765625 C19.88784058 53.09390991 19.88784058 53.09390991 18.15942383 53.09008789 C16.00769653 53.07643188 16.00769653 53.07643188 13.8125 53.0625 C9.254375 53.041875 4.69625 53.02125 0 53 C0 35.51 0 18.02 0 0 Z " fill="#02B34D" transform="translate(680,756)"/>
<path d="M0 0 C1.65322266 0.01740234 1.65322266 0.01740234 3.33984375 0.03515625 C4.44457031 0.04417969 5.54929687 0.05320312 6.6875 0.0625 C7.54214844 0.07410156 8.39679687 0.08570313 9.27734375 0.09765625 C11.84750902 7.1610769 14.41024294 14.22716082 16.96777344 21.29516602 C17.83910052 23.70041212 18.71214104 26.10503822 19.58691406 28.5090332 C20.84238063 31.96014284 22.09171318 35.41341905 23.33984375 38.8671875 C23.73357178 39.94539261 24.1272998 41.02359772 24.53295898 42.13447571 C25.07351929 43.63569221 25.07351929 43.63569221 25.625 45.16723633 C25.94476807 46.04881912 26.26453613 46.93040192 26.59399414 47.83869934 C27.27734375 50.09765625 27.27734375 50.09765625 27.27734375 53.09765625 C23.64734375 53.09765625 20.01734375 53.09765625 16.27734375 53.09765625 C12.27734375 43.34765625 12.27734375 43.34765625 12.27734375 41.09765625 C5.67734375 41.09765625 -0.92265625 41.09765625 -7.72265625 41.09765625 C-8.05265625 43.40765625 -8.38265625 45.71765625 -8.72265625 48.09765625 C-9.71265625 50.57265625 -9.71265625 50.57265625 -10.72265625 53.09765625 C-14.68265625 53.09765625 -18.64265625 53.09765625 -22.72265625 53.09765625 C-17.78808558 39.16959874 -12.83092052 25.25264569 -7.66015625 11.41015625 C-7.27867432 10.3840625 -6.89719238 9.35796875 -6.50415039 8.30078125 C-6.15215576 7.36363281 -5.80016113 6.42648437 -5.4375 5.4609375 C-5.1293335 4.63891846 -4.82116699 3.81689941 -4.50366211 2.9699707 C-3.30830835 0.10433519 -3.25296135 0.11667724 0 0 Z " fill="#04B24C" transform="translate(746.72265625,755.90234375)"/>
<path d="M0 0 C3.96 0 7.92 0 12 0 C13.76235116 4.85139008 15.52206036 9.70372815 17.27954102 14.55688477 C17.87520596 16.20068937 18.47153756 17.84425258 19.06860352 19.48754883 C30 49.57876892 30 49.57876892 30 53 C26.37 53 22.74 53 19 53 C15 43.25 15 43.25 15 41 C8.73 41 2.46 41 -4 41 C-4.474375 42.60875 -4.94875 44.2175 -5.4375 45.875 C-6.875 50.75 -6.875 50.75 -8 53 C-11.63 53 -15.26 53 -19 53 C-18.34716587 47.62571839 -16.64206029 42.93220839 -14.7265625 37.91015625 C-14.23994644 36.61603065 -14.23994644 36.61603065 -13.74349976 35.29576111 C-13.05844792 33.47688814 -12.37078222 31.65899776 -11.68066406 29.84204102 C-10.63053991 27.07708647 -9.58799181 24.30937277 -8.546875 21.54101562 C-7.87804518 19.76806274 -7.20878833 17.99527087 -6.5390625 16.22265625 C-6.22957672 15.4026564 -5.92009094 14.58265656 -5.60122681 13.73780823 C-3.84092621 9.10702391 -1.98539952 4.53897656 0 0 Z " fill="#03B248" transform="translate(643,756)"/>
<path d="M0 0 C3.09207641 3.20979505 6.5390625 8.01250787 6.5390625 12.59765625 C2.15547638 12.939728 -2.08936542 13.14138412 -6.4609375 12.59765625 C-8.9609375 9.72265625 -8.9609375 9.72265625 -10.4609375 6.59765625 C-14.45060304 4.15952731 -18.8936576 3.89566446 -23.4609375 4.59765625 C-27.22327516 5.98141861 -29.90435393 7.85554482 -32.3359375 11.09765625 C-34.98681513 16.98849544 -35.64041473 23.6480925 -33.77734375 29.88671875 C-31.65476224 34.58986616 -29.27147671 37.41929887 -24.4609375 39.59765625 C-19.68180095 40.42134944 -16.4129259 40.09127987 -12.0859375 37.84765625 C-9.44405622 35.82259718 -9.44405622 35.82259718 -8.18359375 33.47265625 C-6.4609375 31.59765625 -6.4609375 31.59765625 -3.54296875 31.20703125 C-2.46402344 31.2534375 -1.38507812 31.29984375 -0.2734375 31.34765625 C0.81324219 31.38375 1.89992188 31.41984375 3.01953125 31.45703125 C3.85097656 31.5034375 4.68242188 31.54984375 5.5390625 31.59765625 C4.69113666 37.14771628 2.42093675 40.60279605 -1.4609375 44.59765625 C-8.86748801 49.89548763 -16.43917426 51.55226905 -25.4609375 50.59765625 C-32.38425951 48.62760527 -39.10672253 44.7121657 -42.74609375 38.3515625 C-46.87285213 29.34369206 -48.35297905 19.81473356 -44.8359375 10.28515625 C-41.23957112 2.4511134 -36.54371957 -2.33122405 -28.4609375 -5.40234375 C-18.89474979 -8.27220006 -7.88161699 -6.10731933 0 0 Z " fill="#04B149" transform="translate(822.4609375,760.40234375)"/>
<path d="M0 0 C4.90047107 17.50168239 4.60677007 43.85847749 -4 60 C-5.31640625 61.77734375 -5.31640625 61.77734375 -7 63 C-9.6875 63.1875 -9.6875 63.1875 -12 63 C-12.82011312 61.44148245 -13.63076213 59.87798284 -14.4375 58.3125 C-14.88996094 57.44238281 -15.34242188 56.57226562 -15.80859375 55.67578125 C-20.02154558 46.21390582 -17.61278905 37.25265827 -14.875 27.75 C-14.55950195 26.64060059 -14.24400391 25.53120117 -13.91894531 24.38818359 C-6.76220682 0 -6.76220682 0 0 0 Z " fill="#F7FCFB" transform="translate(254,764)"/>
<path d="M0 0 C0 3 0 3 -1.28515625 4.54296875 C-1.87167969 5.08566406 -2.45820312 5.62835938 -3.0625 6.1875 C-6.28076714 9.27032905 -9.22457839 12.48096989 -12.13671875 15.8515625 C-26.11363377 31.96750225 -40.6656674 47.97695352 -55.9375 62.875 C-60.07428596 66.9320791 -63.66064405 71.36737762 -67.25 75.91015625 C-68.11625 76.94462891 -68.11625 76.94462891 -69 78 C-69.33 78 -69.66 78 -70 78 C-70.05413245 75.10391407 -70.09373641 72.20884805 -70.125 69.3125 C-70.14175781 68.49587891 -70.15851562 67.67925781 -70.17578125 66.83789062 C-70.240839 58.80325885 -70.240839 58.80325885 -68 55 C-65.99609375 53 -65.99609375 53 -63.4375 51 C-61.95443359 49.83017578 -61.95443359 49.83017578 -60.44140625 48.63671875 C-55.87612247 45.12465277 -51.28741505 41.64278528 -46.69873047 38.16137695 C-39.23563782 32.47297377 -32.02719352 26.49116926 -24.81103516 20.49511719 C-22.48061261 18.57121483 -20.11939497 16.68811153 -17.75 14.8125 C-11.71347001 10.01878501 -5.86492378 5.00081276 0 0 Z " fill="#02B44B" transform="translate(770,436)"/>
<path d="M0 0 C1.125 3.75 1.125 3.75 0 6 C1.32 5.67 2.64 5.34 4 5 C4 5.99 4 6.98 4 8 C4.66 8 5.32 8 6 8 C6.33 6.02 6.66 4.04 7 2 C7.33 2 7.66 2 8 2 C7.4794993 8.8966343 5.49965493 14.5492776 3 21 C7.29 21 11.58 21 16 21 C16 23.62113708 15.68707555 25.50935112 15 28 C16.32 28.66 17.64 29.32 19 30 C12.4 30 5.8 30 -1 30 C-1.33 32.31 -1.66 34.62 -2 37 C-2.99 39.475 -2.99 39.475 -4 42 C-7.96 42 -11.92 42 -16 42 C-14.66957388 38.2496314 -13.33684555 34.5000889 -12.00219727 30.7512207 C-11.33169509 28.86645688 -10.66289271 26.98108863 -9.99414062 25.09570312 C-1.63876793 1.63876793 -1.63876793 1.63876793 0 0 Z " fill="#03B146" transform="translate(740,767)"/>
<path d="M0 0 C25 0 25 0 33 4 C36.04372591 8.28023956 36.56589297 11.81264776 36 17 C34.5 19.9375 34.5 19.9375 33 22 C31.88625 21.835 30.7725 21.67 29.625 21.5 C25.37964934 20.85374596 25.37964934 20.85374596 21.4375 22 C17.19163857 23.23515969 13.38529031 23.17541161 9 23 C9 22.67 9 22.34 9 22 C9.83144531 21.87882813 10.66289063 21.75765625 11.51953125 21.6328125 C12.60621094 21.46523438 13.69289063 21.29765625 14.8125 21.125 C15.89144531 20.96257813 16.97039063 20.80015625 18.08203125 20.6328125 C21.17321793 20.14867662 21.17321793 20.14867662 24 18 C24.73606499 14.43230448 24.73606499 14.43230448 25 11 C22.525 9.515 22.525 9.515 20 8 C20.875 3.125 20.875 3.125 22 2 C15.07 1.67 8.14 1.34 1 1 C1 17.83 1 34.66 1 52 C8.92 52 16.84 52 25 52 C25 52.33 25 52.66 25 53 C16.75 53 8.5 53 0 53 C0 35.51 0 18.02 0 0 Z " fill="#02AD36" transform="translate(680,756)"/>
<path d="M0 0 C-1.64271218 3.71164158 -3.94892687 6.68166296 -6.4375 9.875 C-7.09032959 10.71297119 -7.09032959 10.71297119 -7.75634766 11.56787109 C-8.68530158 12.75921897 -9.61568219 13.94945553 -10.54736328 15.13867188 C-12.0297535 17.03812448 -13.49828105 18.94768327 -14.96484375 20.859375 C-15.93462041 22.11479614 -16.90466555 23.37000994 -17.875 24.625 C-18.32673584 25.21651855 -18.77847168 25.80803711 -19.24389648 26.41748047 C-21.57951259 29.41824037 -23.80972763 31.90777486 -27 34 C-27.33 31.03 -27.66 28.06 -28 25 C-30.97 27.31 -33.94 29.62 -37 32 C-37.66 31.67 -38.32 31.34 -39 31 C-33.75635878 26.22861218 -28.25853047 21.83156288 -22.65478516 17.49560547 C-17.18561869 13.22560006 -11.96545912 8.69366079 -6.79858398 4.06396484 C-2.21041584 0 -2.21041584 0 0 0 Z " fill="#06B445" transform="translate(839,310)"/>
<path d="M0 0 C2.4178712 -0.10826289 4.83087556 -0.18739789 7.25 -0.25 C8.27287109 -0.30027344 8.27287109 -0.30027344 9.31640625 -0.3515625 C12.78524189 -0.41891853 14.65147872 -0.25631407 17.48046875 1.82421875 C19 4 19 4 19.0625 7.0625 C18 10 18 10 15.859375 11.671875 C10.74674848 14.04659224 5.55607212 13.16836582 0 13 C0 8.71 0 4.42 0 0 Z " fill="#FBFDFC" transform="translate(690,787)"/>
<path d="M0 0 C11.48001821 -0.37032317 11.48001821 -0.37032317 13.859375 1.32421875 C15.65549806 3.96304338 15.45137977 5.90482445 15 9 C12.73357995 11.2770356 11.42027204 11.95597709 8.203125 12.29296875 C5.46875 12.1953125 2.734375 12.09765625 0 12 C0 8.04 0 4.08 0 0 Z " fill="#FAFDFC" transform="translate(690,765)"/>
<path d="M0 0 C2.72863567 2.72863567 3.47085394 5.91006895 4.625 9.5 C4.85445312 10.18964844 5.08390625 10.87929688 5.3203125 11.58984375 C7 16.71888951 7 16.71888951 7 19 C2.71 19 -1.58 19 -6 19 C-4.29446483 12.50272314 -2.47390635 6.2436684 0 0 Z " fill="#E5F8F2" transform="translate(648,769)"/>
<path d="M0 0 C2.61943903 2.61943903 3.44197838 5.57473973 4.625 9 C4.85445312 9.64195312 5.08390625 10.28390625 5.3203125 10.9453125 C7 15.72442336 7 15.72442336 7 18 C2.71 18 -1.58 18 -6 18 C-4.2177429 11.88940424 -2.30678315 5.9317281 0 0 Z " fill="#F3FBF9" transform="translate(749,769)"/>
<path d="M0 0 C0.33 0 0.66 0 1 0 C1.98757743 7.75707625 2.21757849 15.46957586 2.24023438 23.28491211 C2.2499354 25.29908657 2.28106677 27.31223529 2.3125 29.32617188 C2.34643453 37.95826879 1.34711384 45.69040277 -1 54 C-0.34 54.33 0.32 54.66 1 55 C0.67 55.66 0.34 56.32 0 57 C-0.99 57 -1.98 57 -3 57 C-3 57.66 -3 58.32 -3 59 C-4.98 59.495 -4.98 59.495 -7 60 C-6.66226563 59.27296875 -6.32453125 58.5459375 -5.9765625 57.796875 C-5.53054687 56.79140625 -5.08453125 55.7859375 -4.625 54.75 C-3.96371094 53.28820312 -3.96371094 53.28820312 -3.2890625 51.796875 C0.84618839 40.73053718 0.24694675 28.86025109 0.125 17.25 C0.11494397 15.57031787 0.10582278 13.89062988 0.09765625 12.2109375 C0.07586468 8.14047718 0.04148163 4.07030532 0 0 Z " fill="#0BB02D" transform="translate(255,766)"/>
<path d="M0 0 C0.99 0.66 1.98 1.32 3 2 C-1.41615099 6.66850248 -1.41615099 6.66850248 -4.3034668 8.30786133 C-7.62444063 10.39185133 -10.22959968 12.98025254 -12.95703125 15.76171875 C-13.50485764 16.31237503 -14.05268402 16.86303131 -14.61711121 17.43037415 C-16.35368793 19.17808307 -18.08315297 20.93263999 -19.8125 22.6875 C-20.99367666 23.87871544 -22.1753126 25.06947566 -23.35742188 26.25976562 C-26.24362357 29.16793528 -29.12347065 32.08226417 -32 35 C-32.66 34.67 -33.32 34.34 -34 34 C-22.78 22.78 -11.56 11.56 0 0 Z " fill="#17B031" transform="translate(379,752)"/>
<path d="M0 0 C-1.47813887 3.22973344 -3.31746497 5.88997098 -5.5 8.6875 C-6.1084375 9.47511719 -6.716875 10.26273437 -7.34375 11.07421875 C-9 13 -9 13 -11 14 C-11.33 13.34 -11.66 12.68 -12 12 C-13.65 13.32 -15.3 14.64 -17 16 C-17.66 15.67 -18.32 15.34 -19 15 C-2.63106796 0 -2.63106796 0 0 0 Z " fill="#0FB13A" transform="translate(839,310)"/>
<path d="M0 0 C4.25742137 0.47304682 6.25705098 2.8863822 9 6 C11.41118949 13.23356846 10.37269541 21.20819594 7 28 C6.34 28.33 5.68 28.66 5 29 C5.495 24.545 5.495 24.545 6 20 C6.66 20 7.32 20 8 20 C8.11021434 11.62600975 8.11021434 11.62600975 4.5625 4.375 C3.716875 3.59125 2.87125 2.8075 2 2 C1.34 1.34 0.68 0.68 0 0 Z " fill="#0AB043" transform="translate(644,315)"/>
<path d="M0 0 C0.66 1.32 1.32 2.64 2 4 C1.401875 4.515625 0.80375 5.03125 0.1875 5.5625 C-3.18459281 9.31997484 -4.73557788 13.28125622 -5.5 18.25 C-6 21 -6 21 -7.42578125 22.41015625 C-9.2447132 24.24714212 -9.85108773 25.75792151 -10.6875 28.1875 C-10.93886719 28.90292969 -11.19023437 29.61835938 -11.44921875 30.35546875 C-11.63097656 30.89816406 -11.81273437 31.44085938 -12 32 C-13.15868236 28.52395292 -12.84470239 27.92365652 -11.5234375 24.6484375 C-11.18183594 23.79636719 -10.84023438 22.94429688 -10.48828125 22.06640625 C-10.12089844 21.17824219 -9.75351562 20.29007812 -9.375 19.375 C-9.03082031 18.51003906 -8.68664062 17.64507812 -8.33203125 16.75390625 C-5.9592741 10.91394678 -3.18614375 5.43713362 0 0 Z " fill="#0BB234" transform="translate(397,404)"/>
<path d="M0 0 C0 3 0 3 -1.28515625 4.54296875 C-1.87167969 5.08566406 -2.45820312 5.62835938 -3.0625 6.1875 C-6.45041487 9.41703673 -9.5027063 12.82242989 -12.51953125 16.3984375 C-14 18 -14 18 -16 19 C-16.33 17.68 -16.66 16.36 -17 15 C-5.47835991 4.44191344 -5.47835991 4.44191344 0 0 Z " fill="#0DB03E" transform="translate(770,436)"/>
<path d="M0 0 C0.66 0 1.32 0 2 0 C0.49543717 5.06080224 -1.65388018 9.73814651 -3.87890625 14.51171875 C-5.07266058 17.04900556 -5.07266058 17.04900556 -6 20 C-6.66 20 -7.32 20 -8 20 C-7.67 20.99 -7.34 21.98 -7 23 C-8.65 23.66 -10.3 24.32 -12 25 C-10.25636637 20.2169176 -7.85061242 15.84287955 -5.4375 11.375 C-4.6215526 9.86313502 -3.80766251 8.35015744 -2.99609375 6.8359375 C-2.63700928 6.17126465 -2.2779248 5.5065918 -1.90795898 4.82177734 C-0.87218509 2.85013332 -0.87218509 2.85013332 0 0 Z " fill="#0AAF29" transform="translate(388,343)"/>
<path d="M0 0 C0.66 0.33 1.32 0.66 2 1 C-0.04796007 4.0719401 -1.68290303 5.45202141 -5 7 C-5.33 7.66 -5.66 8.32 -6 9 C-7.68702265 9.95928739 -9.37588248 10.9156433 -11.078125 11.84765625 C-14.00205876 13.60082791 -16.44124163 15.75328534 -19 18 C-19.66 17.67 -20.32 17.34 -21 17 C-14.10035518 11.19776061 -7.17026999 5.4682362 0 0 Z " fill="#0BB12C" transform="translate(618,433)"/>
<path d="M0 0 C13.11681173 -0.57306459 13.11681173 -0.57306459 18 3 C21.39260355 6.2257542 23.57817695 9.21933879 24 14 C20.14450867 9.21387283 20.14450867 9.21387283 18.4375 6.6875 C17.963125 6.130625 17.48875 5.57375 17 5 C16.01 5 15.02 5 14 5 C14 4.34 14 3.68 14 3 C12.68 3 11.36 3 10 3 C10 2.34 10 1.68 10 1 C6.7 1 3.4 1 0 1 C0 0.67 0 0.34 0 0 Z " fill="#08AE2B" transform="translate(496,322)"/>
<path d="M0 0 C0.66 0 1.32 0 2 0 C0.42682025 3.8614412 -2.04144594 6.1064691 -5 9 C-6.11201183 10.10934073 -7.22262514 11.22008464 -8.33203125 12.33203125 C-13.16601562 17.16601562 -13.16601562 17.16601562 -18 22 C-18 19 -18 19 -15.5859375 16.328125 C-14.5223866 15.29507619 -13.45165241 14.26938704 -12.375 13.25 C-8.8778861 9.86463791 -5.46541762 6.52030949 -2.375 2.75 C-1.59125 1.8425 -0.8075 0.935 0 0 Z " fill="#06AF27" transform="translate(471,415)"/>
<path d="M0 0 C1.29202804 4.62588402 0.30327754 7.40019691 -1 12 C-1.66 12 -2.32 12 -3 12 C-3.268125 13.03125 -3.53625 14.0625 -3.8125 15.125 C-4.80998897 18.6485042 -6.2661898 21.76880827 -8 25 C-9.23435632 21.29693104 -8.61556372 20.41770581 -7.12890625 16.89453125 C-6.71962891 15.91162109 -6.31035156 14.92871094 -5.88867188 13.91601562 C-5.45103516 12.89185547 -5.01339844 11.86769531 -4.5625 10.8125 C-4.12873047 9.77673828 -3.69496094 8.74097656 -3.24804688 7.67382812 C-2.1738102 5.11218682 -1.09085232 2.55459966 0 0 Z " fill="#0EB137" transform="translate(748,224)"/>
<path d="M0 0 C0.66 0.33 1.32 0.66 2 1 C0.61240749 2.61130023 -0.78545623 4.21375841 -2.1875 5.8125 C-2.96480469 6.70582031 -3.74210937 7.59914063 -4.54296875 8.51953125 C-6.90787651 10.90699775 -9.08781109 12.36917421 -12 14 C-13.36984198 15.29579647 -14.7151049 16.61992749 -16 18 C-16.66 17.67 -17.32 17.34 -18 17 C-12.18590512 11.09128152 -6.41069287 5.27101414 0 0 Z " fill="#0AAF2F" transform="translate(422,712)"/>
<path d="M0 0 C4.56383571 3.51216922 7.7282557 7.01210946 10.875 11.8125 C11.2771875 12.40998047 11.679375 13.00746094 12.09375 13.62304688 C13.07056653 15.07664291 14.03646423 16.53756682 15 18 C15.99 17.67 16.98 17.34 18 17 C17.67 17.99 17.34 18.98 17 20 C13.43493332 19.44621255 12.13786426 18.3861033 10.01953125 15.5078125 C9.49552734 14.80269531 8.97152344 14.09757813 8.43164062 13.37109375 C7.89732422 12.62988281 7.36300781 11.88867188 6.8125 11.125 C6.26658203 10.39152344 5.72066406 9.65804687 5.15820312 8.90234375 C1.14927012 3.44781037 1.14927012 3.44781037 0 0 Z " fill="#08B03A" transform="translate(237,645)"/>
<path d="M0 0 C0.33 0 0.66 0 1 0 C1.46530864 7.78961124 0.15721701 14.52678392 -2 22 C-3.00109515 18.68929162 -3.10356134 15.69915231 -3.0625 12.25 C-3.05347656 11.26515625 -3.04445313 10.2803125 -3.03515625 9.265625 C-3.02355469 8.51796875 -3.01195312 7.7703125 -3 7 C-2.01 6.67 -1.02 6.34 0 6 C0 4.02 0 2.04 0 0 Z " fill="#01AE3F" transform="translate(357,348)"/>
<path d="M0 0 C0.66 0 1.32 0 2 0 C0.8905928 3.48670834 -0.26337666 6.77484237 -2 10 C-1.34 10.33 -0.68 10.66 0 11 C-3.75 14 -3.75 14 -6 14 C-6 15.32 -6 16.64 -6 18 C-6.99 18 -7.98 18 -9 18 C-7.45614871 13.85967154 -5.48971062 10.06446947 -3.375 6.1875 C-3.05015625 5.59001953 -2.7253125 4.99253906 -2.390625 4.37695312 C-1.59620849 2.91662865 -0.79844624 1.45812509 0 0 Z " fill="#0EB33C" transform="translate(622,366)"/>
<path d="M0 0 C-2.74793818 1.31697037 -5.49817185 2.62870369 -8.25 3.9375 C-9.02730469 4.31068359 -9.80460938 4.68386719 -10.60546875 5.06835938 C-11.73662109 5.60493164 -11.73662109 5.60493164 -12.890625 6.15234375 C-13.92751465 6.6472229 -13.92751465 6.6472229 -14.98535156 7.15209961 C-16.97427999 7.98917528 -18.89580682 8.53583974 -21 9 C-21 9.66 -21 10.32 -21 11 C-22.32 10.34 -23.64 9.68 -25 9 C-21.40312101 7.2966371 -17.79646081 5.61509411 -14.1875 3.9375 C-12.65125977 3.20950195 -12.65125977 3.20950195 -11.08398438 2.46679688 C-10.10107422 2.01240234 -9.11816406 1.55800781 -8.10546875 1.08984375 C-7.19949951 0.66566162 -6.29353027 0.24147949 -5.36010742 -0.19555664 C-3 -1 -3 -1 0 0 Z " fill="#0CB12B" transform="translate(186,600)"/>
<path d="M0 0 C0.33 0 0.66 0 1 0 C1.33 3.96 1.66 7.92 2 12 C3.32 11.34 4.64 10.68 6 10 C4.43039961 13.66240092 3.06096354 14.93903646 0 18 C0 12.06 0 6.12 0 0 Z " fill="#12B346" transform="translate(700,496)"/>
<path d="M0 0 C1.09178911 3.27536732 0.93042848 4.04413619 0.00390625 7.23046875 C-0.22490234 8.03291016 -0.45371094 8.83535156 -0.68945312 9.66210938 C-0.93630859 10.49548828 -1.18316406 11.32886719 -1.4375 12.1875 C-1.68048828 13.03248047 -1.92347656 13.87746094 -2.17382812 14.74804688 C-2.77493493 16.8342411 -3.38647834 18.91742301 -4 21 C-4.33 21 -4.66 21 -5 21 C-5.02696365 19.20841511 -5.04637917 17.41671527 -5.0625 15.625 C-5.07410156 14.62726563 -5.08570313 13.62953125 -5.09765625 12.6015625 C-5 10 -5 10 -4 8 C-3.34 8 -2.68 8 -2 8 C-1.7834375 6.576875 -1.7834375 6.576875 -1.5625 5.125 C-1 2 -1 2 0 0 Z " fill="#01AE3D" transform="translate(711,233)"/>
<path d="M0 0 C1.478746 4.436238 -0.25166322 6.73405826 -2 11 C-5.63 11 -9.26 11 -13 11 C-12.67 9.68 -12.34 8.36 -12 7 C-11.67 7.99 -11.34 8.98 -11 10 C-8.36 10 -5.72 10 -3 10 C-2.95101562 9.36191406 -2.90203125 8.72382812 -2.8515625 8.06640625 C-2.77679687 7.24011719 -2.70203125 6.41382813 -2.625 5.5625 C-2.55539062 4.73878906 -2.48578125 3.91507813 -2.4140625 3.06640625 C-2.27742187 2.38449219 -2.14078125 1.70257812 -2 1 C-1.34 0.67 -0.68 0.34 0 0 Z " fill="#06AA2D" transform="translate(637,798)"/>
<path d="M0 0 C0.99 0.33 1.98 0.66 3 1 C2.690625 2.010625 2.38125 3.02125 2.0625 4.0625 C1.02352081 7.6731369 0.45688819 11.26874647 0 15 C-2 13 -2 13 -2.01171875 10.46875 C-1.90472656 9.4890625 -1.79773438 8.509375 -1.6875 7.5 C-1.58824219 6.5203125 -1.48898437 5.540625 -1.38671875 4.53125 C-1 2 -1 2 0 0 Z " fill="#09B342" transform="translate(266,611)"/>
<path d="M0 0 C0.99 0.66 1.98 1.32 3 2 C-0.13118145 5.31010611 -3.07019678 7.72485076 -7 10 C-8.75149165 11.58245275 -8.75149165 11.58245275 -10 13 C-10.66 12.67 -11.32 12.34 -12 12 C-8.04 8.04 -4.08 4.08 0 0 Z " fill="#1AB53F" transform="translate(379,752)"/>
<path d="M0 0 C2.46305142 3.0009592 3.91069397 5.86188511 5.25 9.5 C5.60578125 10.4384375 5.9615625 11.376875 6.328125 12.34375 C7.01941191 15.07674477 6.95925156 16.39280344 6 19 C0 5.89320388 0 5.89320388 0 0 Z " fill="#0BB042" transform="translate(407,211)"/>
<path d="M0 0 C3.12304734 2.92915527 5.48990091 5.96858351 7.8125 9.5625 C8.43769531 10.51253906 9.06289063 11.46257812 9.70703125 12.44140625 C10.13371094 13.28574219 10.56039063 14.13007813 11 15 C10.67 15.99 10.34 16.98 10 18 C9.37351562 17.00097656 8.74703125 16.00195312 8.1015625 14.97265625 C7.27629577 13.66910993 6.45076102 12.36573326 5.625 11.0625 C5.2125 10.40314453 4.8 9.74378906 4.375 9.06445312 C2.25467736 5.45469599 2.25467736 5.45469599 -1 3 C-0.67 2.01 -0.34 1.02 0 0 Z " fill="#0CAF39" transform="translate(393,188)"/>
<path d="M0 0 C0 3 0 3 -2 5.1875 C-2.66 5.785625 -3.32 6.38375 -4 7 C-2.55746343 10.36591866 -0.66735273 12.51047079 2 15 C-1 15 -1 15 -2.60546875 13.6875 C-3.12753906 13.130625 -3.64960938 12.57375 -4.1875 12 C-4.71730469 11.443125 -5.24710937 10.88625 -5.79296875 10.3125 C-6.39044922 9.6628125 -6.39044922 9.6628125 -7 9 C-5.44499019 5.18315774 -2.96404505 2.80804268 0 0 Z " fill="#10B234" transform="translate(340,792)"/>
<path d="M0 0 C1.30348086 3.91044257 0.35619721 5.20355304 -1.25 8.9375 C-1.68828125 9.97777344 -2.1265625 11.01804687 -2.578125 12.08984375 C-3.84450611 14.68175015 -5.17864011 16.77686955 -7 19 C-6.41249992 14.5470164 -5.26681981 10.81179158 -3.5 6.6875 C-3.0565625 5.63949219 -2.613125 4.59148438 -2.15625 3.51171875 C-1 1 -1 1 0 0 Z " fill="#12B331" transform="translate(235,762)"/>
<path d="M0 0 C0 2.31 0 4.62 0 7 C-0.33 7 -0.66 7 -1 7 C-1 5.02 -1 3.04 -1 1 C-6.94 4.465 -6.94 4.465 -13 8 C-13.33 7.34 -13.66 6.68 -14 6 C-13.195625 5.54625 -12.39125 5.0925 -11.5625 4.625 C-8.91143428 3.25274335 -8.91143428 3.25274335 -8 1 C-5.14829211 0.01665245 -3.10359391 0 0 0 Z " fill="#03AD3A" transform="translate(272,582)"/>
<path d="M0 0 C2.55803184 3.83704776 4.34505724 7.75712791 3.625 12.4375 C3.41875 12.953125 3.2125 13.46875 3 14 C2.67 13.01 2.34 12.02 2 11 C1.01 10.67 0.02 10.34 -1 10 C-0.814375 9.2575 -0.62875 8.515 -0.4375 7.75 C-0.00415005 5.02608603 -0.2593443 3.59229496 -1 1 C-0.67 0.67 -0.34 0.34 0 0 Z " fill="#0BB155" transform="translate(274,722)"/>
<path d="M0 0 C0.33 1.32 0.66 2.64 1 4 C0.46890625 4.45890625 -0.0621875 4.9178125 -0.609375 5.390625 C-4.18324699 8.49493717 -7.71854059 11.58181312 -11 15 C-11.66 14.67 -12.32 14.34 -13 14 C-12.31292969 13.32453125 -11.62585938 12.6490625 -10.91796875 11.953125 C-10.01691406 11.06109375 -9.11585938 10.1690625 -8.1875 9.25 C-6.84751953 7.92742187 -6.84751953 7.92742187 -5.48046875 6.578125 C-3.44787848 4.46551149 -1.68226182 2.39205335 0 0 Z " fill="#0AB128" transform="translate(501,467)"/>
<path d="M0 0 C0 3 0 3 -1.2421875 4.46484375 C-1.78101563 4.95082031 -2.31984375 5.43679688 -2.875 5.9375 C-4.80779386 7.75288115 -5.95328107 8.90396665 -7.125 11.3125 C-8 13 -8 13 -10.125 13.75 C-11.053125 13.87375 -11.053125 13.87375 -12 14 C-9.87753203 10.13284962 -7.47253855 7.25594323 -4.3125 4.1875 C-3.50425781 3.39730469 -2.69601562 2.60710937 -1.86328125 1.79296875 C-1.24839844 1.20128906 -0.63351562 0.60960937 0 0 Z " fill="#15B42F" transform="translate(601,398)"/>
<path d="M0 0 C0.66 0 1.32 0 2 0 C2.56203125 0.63421875 3.1240625 1.2684375 3.703125 1.921875 C6.67398204 4.60979327 8.81010793 4.77721295 12.75 5.25 C14.50570312 5.47429688 14.50570312 5.47429688 16.296875 5.703125 C17.18890625 5.80109375 18.0809375 5.8990625 19 6 C19 6.33 19 6.66 19 7 C17.10489301 7.08160748 15.20875496 7.13946459 13.3125 7.1875 C11.72888672 7.23970703 11.72888672 7.23970703 10.11328125 7.29296875 C6.60329324 6.96266875 4.80943239 6.08700692 2 4 C0.6875 1.8125 0.6875 1.8125 0 0 Z " fill="#05AA31" transform="translate(218,520)"/>
<path d="M0 0 C0.66 0.33 1.32 0.66 2 1 C-1.66616663 6.02400613 -5.54743551 8.2852698 -11 11 C-7.6189962 6.86378916 -4.33409466 3.18683431 0 0 Z " fill="#0AB033" transform="translate(474,666)"/>
<path d="M0 0 C-0.375 2.4375 -0.375 2.4375 -1 5 C-1.99 5.495 -1.99 5.495 -3 6 C-3.33 5.34 -3.66 4.68 -4 4 C-5.65 5.32 -7.3 6.64 -9 8 C-9.66 7.67 -10.32 7.34 -11 7 C-9.73742767 5.82439821 -8.46462916 4.65977135 -7.1875 3.5 C-6.12595703 2.52546875 -6.12595703 2.52546875 -5.04296875 1.53125 C-3 0 -3 0 0 0 Z " fill="#05AF2E" transform="translate(831,318)"/>
<path d="M0 0 C0.99 0.33 1.98 0.66 3 1 C-2.445 5.455 -2.445 5.455 -8 10 C-8.66 9.67 -9.32 9.34 -10 9 C-6.7 6.03 -3.4 3.06 0 0 Z " fill="#01B140" transform="translate(351,782)"/>
<path d="M0 0 C-0.14230808 1.41702513 -0.28900746 2.8336096 -0.4375 4.25 C-0.51871094 5.03890625 -0.59992188 5.8278125 -0.68359375 6.640625 C-0.97634993 8.82364639 -1.42064419 10.8773182 -2 13 C-2.66 13 -3.32 13 -4 13 C-4.08121924 11.39667209 -4.13929134 9.79215974 -4.1875 8.1875 C-4.22230469 7.29417969 -4.25710938 6.40085937 -4.29296875 5.48046875 C-4 3 -4 3 -2.55078125 1.17578125 C-1 0 -1 0 0 0 Z " fill="#02AD3F" transform="translate(277,634)"/>
<path d="M0 0 C0.66 0.33 1.32 0.66 2 1 C1.401875 1.86625 0.80375 2.7325 0.1875 3.625 C-1.82044534 6.62619944 -3.44655098 9.73775706 -5 13 C-5.99 12.67 -6.98 12.34 -8 12 C-5.36 8.04 -2.72 4.08 0 0 Z " fill="#0BB131" transform="translate(407,388)"/>
<path d="M0 0 C0.66 0.33 1.32 0.66 2 1 C-5.11389522 7.70387244 -5.11389522 7.70387244 -10 8 C-10 8.66 -10 9.32 -10 10 C-10.66 10 -11.32 10 -12 10 C-10.69522778 6.08568335 -9.01326694 5.42187412 -5.5625 3.25 C-4.57378906 2.61578125 -3.58507812 1.9815625 -2.56640625 1.328125 C-1.29603516 0.67070312 -1.29603516 0.67070312 0 0 Z " fill="#11B42D" transform="translate(438,446)"/>
<path d="M0 0 C0.66 0.33 1.32 0.66 2 1 C1.67 1.33 1.34 1.66 1 2 C2.98 1.67 4.96 1.34 7 1 C6.3125 2.9375 6.3125 2.9375 5 5 C2.375 5.75 2.375 5.75 0 6 C-0.66 4.68 -1.32 3.36 -2 2 C-1.34 1.34 -0.68 0.68 0 0 Z " fill="#02B339" transform="translate(740,461)"/>
<path d="M0 0 C0.66 0.33 1.32 0.66 2 1 C0.71937515 2.7074998 -0.61767557 4.37373596 -2 6 C-2.66 6 -3.32 6 -4 6 C-4.33 6.66 -4.66 7.32 -5 8 C-5.99 7.34 -6.98 6.68 -8 6 C-5.36 4.02 -2.72 2.04 0 0 Z " fill="#0CB336" transform="translate(756,374)"/>
<path d="M0 0 C1.32 0.66 2.64 1.32 4 2 C3.34 2 2.68 2 2 2 C1.67 2.66 1.34 3.32 1 4 C-1.62581138 5.57548683 -2.87099787 6 -6 6 C-4.02 4.02 -2.04 2.04 0 0 Z " fill="#0AB236" transform="translate(633,420)"/>
<path d="M0 0 C0.33 0 0.66 0 1 0 C1.2236337 1.41433206 1.42826476 2.83167618 1.625 4.25 C1.74101562 5.03890625 1.85703125 5.8278125 1.9765625 6.640625 C2.00319395 9.32152459 1.36592084 10.72694089 0 13 C-1.98384711 9.03230578 -1.32630565 4.14470514 0 0 Z " fill="#05B239" transform="translate(333,391)"/>
<path d="M0 0 C0.66 0.33 1.32 0.66 2 1 C1.01 1.33 0.02 1.66 -1 2 C-1.28875 2.66 -1.5775 3.32 -1.875 4 C-3 6 -3 6 -5.625 6.75 C-6.800625 6.87375 -6.800625 6.87375 -8 7 C-5.42215154 4.35247996 -3.08351902 2.05567935 0 0 Z " fill="#0DB231" transform="translate(656,524)"/>
<path d="M0 0 C0.99 0.66 1.98 1.32 3 2 C1.75023244 5.65316671 1.32901247 6.78065836 -2 9 C-2.33 8.01 -2.66 7.02 -3 6 C-2.01 6 -1.02 6 0 6 C-0.2784375 4.7934375 -0.2784375 4.7934375 -0.5625 3.5625 C-0.706875 2.716875 -0.85125 1.87125 -1 1 C-0.67 0.67 -0.34 0.34 0 0 Z " fill="#10B653" transform="translate(752,451)"/>
<path d="M0 0 C2.0625 0.4375 2.0625 0.4375 4 1 C2.90716423 2.03295436 1.80029421 3.05107835 0.6875 4.0625 C0.07261719 4.63097656 -0.54226563 5.19945312 -1.17578125 5.78515625 C-1.77777344 6.18605469 -2.37976563 6.58695312 -3 7 C-3.99 6.67 -4.98 6.34 -6 6 C-4 4 -2 2 0 0 Z " fill="#03AE3F" transform="translate(567,443)"/>
<path d="M0 0 C0.33 0.99 0.66 1.98 1 3 C-0.43359375 5.04296875 -0.43359375 5.04296875 -2.4375 7.1875 C-3.09621094 7.90292969 -3.75492187 8.61835938 -4.43359375 9.35546875 C-4.95050781 9.89816406 -5.46742188 10.44085938 -6 11 C-6 6.78865621 -5.36978762 5.38782604 -2.4375 2.3125 C-1.633125 1.549375 -0.82875 0.78625 0 0 Z " fill="#07AE42" transform="translate(497,407)"/>
<path d="M0 0 C0.99 0.33 1.98 0.66 3 1 C2.67 1.66 2.34 2.32 2 3 C1.34 3 0.68 3 0 3 C0.33 3.99 0.66 4.98 1 6 C-0.65 6.66 -2.3 7.32 -4 8 C-2.87548273 5.0280615 -1.77706209 2.66559313 0 0 Z " fill="#07B23B" transform="translate(380,360)"/>
<path d="M0 0 C0.66 0.33 1.32 0.66 2 1 C1.11223998 4.69900008 0.05418136 8.34550461 -1 12 C-1.66 11.67 -2.32 11.34 -3 11 C-2.01 7.37 -1.02 3.74 0 0 Z " fill="#12B439" transform="translate(400,309)"/>
<path d="M0 0 C0.66 0.33 1.32 0.66 2 1 C2 1.99 2 2.98 2 4 C-3.625 6 -3.625 6 -7 6 C-4.69 4.02 -2.38 2.04 0 0 Z " fill="#08B232" transform="translate(750,453)"/>
<path d="M0 0 C0.33 0 0.66 0 1 0 C1.2226746 1.43534841 1.42761906 2.87345525 1.625 4.3125 C1.74101562 5.11300781 1.85703125 5.91351563 1.9765625 6.73828125 C2 9 2 9 0 12 C-1.31157516 9.37684968 -0.89649988 7.76966564 -0.5625 4.875 C-0.46066406 3.96492188 -0.35882813 3.05484375 -0.25390625 2.1171875 C-0.17011719 1.41851562 -0.08632813 0.71984375 0 0 Z " fill="#0CB342" transform="translate(382,439)"/>
<path d="M0 0 C0.66 0.33 1.32 0.66 2 1 C0.25 3 0.25 3 -2 5 C-3.32 5 -4.64 5 -6 5 C-6.33 5.66 -6.66 6.32 -7 7 C-7.33 6.01 -7.66 5.02 -8 4 C-6.71349294 3.30289269 -5.42059335 2.61757124 -4.125 1.9375 C-3.40570313 1.55464844 -2.68640625 1.17179687 -1.9453125 0.77734375 C-1.30335938 0.52082031 -0.66140625 0.26429688 0 0 Z " fill="#15B43B" transform="translate(247,491)"/>
<path d="M0 0 C0 3.62453269 -0.92469613 5.07920195 -3 8 C-3.99 8.33 -4.98 8.66 -6 9 C-4.47291037 5.56404834 -2.40072955 2.88087546 0 0 Z " fill="#0AB132" transform="translate(483,400)"/>
<path d="M0 0 C0.66 0 1.32 0 2 0 C1.69381595 3.67420866 1.24228216 4.78135513 -1.5625 7.3125 C-2.366875 7.869375 -3.17125 8.42625 -4 9 C-2.94124926 5.59687262 -1.99097846 2.98646769 0 0 Z " fill="#0BB337" transform="translate(529,380)"/>
<path d="M0 0 C1.32 0.33 2.64 0.66 4 1 C4.33 2.98 4.66 4.96 5 7 C2.5 5.75 2.5 5.75 0 4 C0 2.68 0 1.36 0 0 Z " fill="#01B041" transform="translate(266,707)"/>
<path d="M0 0 C0.66 0.33 1.32 0.66 2 1 C0.35 2.98 -1.3 4.96 -3 7 C-3.66 6.67 -4.32 6.34 -5 6 C-3.63016497 2.83884224 -3.0109362 2.0072908 0 0 Z " fill="#09B33E" transform="translate(528,621)"/>
<path d="M0 0 C0.33 0.99 0.66 1.98 1 3 C-1.31 4.65 -3.62 6.3 -6 8 C-6.66 7.67 -7.32 7.34 -8 7 C-5.36 4.69 -2.72 2.38 0 0 Z " fill="#0FB237" transform="translate(594,569)"/>
<path d="M0 0 C0.78375 0.04125 1.5675 0.0825 2.375 0.125 C0.725 2.105 -0.925 4.085 -2.625 6.125 C-3.285 4.805 -3.945 3.485 -4.625 2.125 C-2.625 0.125 -2.625 0.125 0 0 Z " fill="#00AE44" transform="translate(548.625,456.875)"/>
<path d="M0 0 C1.13643966 3.40931897 0.86747764 4.00335456 -0.4375 7.1875 C-0.86869141 8.26064453 -0.86869141 8.26064453 -1.30859375 9.35546875 C-1.53675781 9.89816406 -1.76492188 10.44085938 -2 11 C-3.24386556 7.26840331 -2.77811718 4.81984796 -2 1 C-1.34 0.67 -0.68 0.34 0 0 Z " fill="#02AB39" transform="translate(421,413)"/>
<path d="M0 0 C0.66 0.99 1.32 1.98 2 3 C-0.31 4.98 -2.62 6.96 -5 9 C-5.66 8.67 -6.32 8.34 -7 8 C-4.69 5.36 -2.38 2.72 0 0 Z " fill="#CEF0F3" transform="translate(449,373)"/>
<path d="M0 0 C0.66 1.32 1.32 2.64 2 4 C0.35 5.32 -1.3 6.64 -3 8 C-3.33 6.35 -3.66 4.7 -4 3 C-3.01 3 -2.02 3 -1 3 C-0.67 2.01 -0.34 1.02 0 0 Z " fill="#0FB759" transform="translate(726,481)"/>
<path d="M0 0 C0.66 0.33 1.32 0.66 2 1 C0.29374499 3.78388975 -0.47626739 4.85384206 -3.6875 5.75 C-4.8321875 5.87375 -4.8321875 5.87375 -6 6 C-4 4 -2 2 0 0 Z " fill="#05B12F" transform="translate(716,480)"/>
<path d="M0 0 C-1.20381448 2.49361571 -2.45428722 4.68143083 -4 7 C-4.66 7 -5.32 7 -6 7 C-5.6875 4.625 -5.6875 4.625 -5 2 C-2 0 -2 0 0 0 Z " fill="#07B544" transform="translate(444,443)"/>
<path d="M0 0 C0.66 0.33 1.32 0.66 2 1 C1.21654285 2.17219543 0.42297164 3.33763668 -0.375 4.5 C-0.81585938 5.1496875 -1.25671875 5.799375 -1.7109375 6.46875 C-2.13632812 6.9740625 -2.56171875 7.479375 -3 8 C-3.66 8 -4.32 8 -5 8 C-3.8141763 4.62496331 -2.72426311 2.35277269 0 0 Z " fill="#0CB133" transform="translate(414,379)"/>
<path d="M0 0 C0.33 0.99 0.66 1.98 1 3 C-0.98 4.32 -2.96 5.64 -5 7 C-5.66 6.67 -6.32 6.34 -7 6 C-4.69 4.02 -2.38 2.04 0 0 Z " fill="#0CB433" transform="translate(572,336)"/>
<path d="M0 0 C0.33 0.66 0.66 1.32 1 2 C0.0625 4.125 0.0625 4.125 -1 6 C-1.66 6 -2.32 6 -3 6 C-3 6.99 -3 7.98 -3 9 C-3.66 8.67 -4.32 8.34 -5 8 C-3.375 2.25 -3.375 2.25 0 0 Z " fill="#09B543" transform="translate(697,205)"/>
<path d="M0 0 C0.66 0.33 1.32 0.66 2 1 C1.0479279 2.00596297 0.08812654 3.00461563 -0.875 4 C-1.40867187 4.556875 -1.94234375 5.11375 -2.4921875 5.6875 C-4 7 -4 7 -6 7 C-6 6.01 -6 5.02 -6 4 C-3.5625 2.375 -3.5625 2.375 -1 1 C-0.67 0.67 -0.34 0.34 0 0 Z " fill="#02AC39" transform="translate(537,656)"/>
<path d="M0 0 C0.66 0.33 1.32 0.66 2 1 C1.67 2.32 1.34 3.64 1 5 C-0.32 5 -1.64 5 -3 5 C-2.625 3.0625 -2.625 3.0625 -2 1 C-1.34 0.67 -0.68 0.34 0 0 Z " fill="#05B755" transform="translate(827,321)"/>
<path d="M0 0 C1 2 1 2 0.0625 5.125 C-0.288125 6.07375 -0.63875 7.0225 -1 8 C-1.99 8 -2.98 8 -4 8 C-2.87548273 5.0280615 -1.77706209 2.66559313 0 0 Z " fill="#0CB336" transform="translate(385,200)"/>
</svg>
